<svg width="18" height="18" viewBox="0 0 18 18" fill="none" xmlns="http://www.w3.org/2000/svg">
<path fill-rule="evenodd" clip-rule="evenodd" d="M16.9995 12.9789V15.3877C17.003 16.2743 16.2857 16.9965 15.3973 17C15.3464 17 15.2962 16.9979 15.2457 16.9933C12.7701 16.7249 10.3924 15.8809 8.30331 14.5286C6.35945 13.2957 4.71127 11.6512 3.47627 9.71152C2.11676 7.6168 1.27075 5.23223 1.00663 2.75035C0.926662 1.86717 1.57906 1.08654 2.46436 1.00673C2.51171 1.00253 2.55976 1.00008 2.60746 1.00008H5.02098C5.82841 0.99203 6.51694 1.58292 6.62988 2.38104C6.7316 3.15186 6.92065 3.90868 7.19319 4.63714C7.41381 5.22383 7.27281 5.88543 6.83086 6.33105L5.80912 7.35076C6.95432 9.36112 8.62215 11.0249 10.6362 12.1682L11.6579 11.1485C12.1044 10.7078 12.7673 10.5667 13.3552 10.7872C14.0851 11.0589 14.8434 11.2476 15.6158 11.3491C16.4246 11.4628 17.0198 12.164 16.9995 12.9789Z" stroke="#908F9D" stroke-width="2" stroke-linecap="round" stroke-linejoin="round"/>
</svg>
