<svg width="29" height="29" viewBox="0 0 29 29" fill="none" xmlns="http://www.w3.org/2000/svg">
<path fill-rule="evenodd" clip-rule="evenodd" d="M25.6826 0.375862C21.2572 0.843734 17.0042 2.34323 13.2692 4.75268V4.75268C9.81003 6.94154 6.87679 9.86195 4.67883 13.3067V13.3067C2.26758 17.009 0.761951 21.2229 0.282929 25.6097V25.6097C0.275006 25.6992 0.27135 25.7887 0.271655 25.8779V25.8779C0.278054 27.4527 1.5655 28.7243 3.1467 28.7179V28.7179H7.44204C8.89556 28.7537 10.1455 27.6993 10.3485 26.2657V26.2657C10.5301 24.897 10.8659 23.5528 11.3507 22.2593V22.2593C11.7441 21.2177 11.4927 20.0432 10.7065 19.2515V19.2515L8.88825 17.441C10.9262 13.8716 13.8939 10.9163 17.4786 8.88706V8.88706L19.2969 10.6976C20.0919 11.4801 21.2715 11.731 22.3179 11.339V11.339C23.6172 10.8566 24.9669 10.5216 26.3415 10.3413V10.3413C27.7648 10.1408 28.8182 8.92135 28.8042 7.49012V7.49012V3.21283C28.8042 3.12817 28.8002 3.04352 28.7923 2.95887V2.95887C28.6582 1.47788 27.4092 0.364029 25.9438 0.364029V0.364029C25.8576 0.364029 25.7701 0.367973 25.6826 0.375862" fill="white"/>
</svg>
