<svg width="28" height="28" viewBox="0 0 28 28" fill="none" xmlns="http://www.w3.org/2000/svg">
<path fill-rule="evenodd" clip-rule="evenodd" d="M10.4493 26.9725H7.1638C5.95399 26.9773 4.96978 26.0007 4.96463 24.7912C4.96436 24.7224 4.96734 24.6536 4.9733 24.5851C5.33974 21.2151 6.49132 17.9781 8.33542 15.1341C10.0168 12.488 12.2603 10.2447 14.9064 8.56338C17.7634 6.7125 21.0161 5.56065 24.4013 5.20125C25.6059 5.09238 26.6708 5.98071 26.7797 7.18538C26.7854 7.25038 26.7884 7.31538 26.7887 7.38065V10.6661C26.7992 11.7654 25.9938 12.7025 24.905 12.8561C23.8534 12.995 22.8212 13.252 21.8278 13.6228C21.0272 13.9237 20.1251 13.7311 19.5168 13.1299L18.126 11.7392C15.3844 13.2981 13.1143 15.5682 11.5554 18.3101L12.9461 19.7009C13.5471 20.3089 13.7396 21.2113 13.4387 22.0116C13.0682 23.005 12.8109 24.0374 12.6723 25.0888C12.5171 26.19 11.5608 27.0001 10.4493 26.9725Z" stroke="white" stroke-width="2" stroke-linecap="round" stroke-linejoin="round"/>
<path fill-rule="evenodd" clip-rule="evenodd" d="M14.904 7.94588C14.904 11.782 11.7943 14.8917 7.95823 14.8917C4.12214 14.8917 1.01244 11.782 1.01244 7.94588C1.01244 4.10979 4.12214 1.00008 7.95823 1.00008C11.7943 1.00008 14.904 4.10979 14.904 7.94588Z" fill="#25D366"/>
<path fill-rule="evenodd" clip-rule="evenodd" d="M14.904 7.94588C14.904 11.782 11.7943 14.8917 7.95823 14.8917C4.12214 14.8917 1.01244 11.782 1.01244 7.94588C1.01244 4.10979 4.12214 1.00008 7.95823 1.00008C11.7943 1.00008 14.904 4.10979 14.904 7.94588Z" stroke="white" stroke-width="2" stroke-linecap="round" stroke-linejoin="round"/>
<path d="M6.41745 5.9043V9.98739" stroke="white" stroke-width="2" stroke-linecap="round" stroke-linejoin="round"/>
<path d="M9.49899 5.9043V9.98739" stroke="white" stroke-width="2" stroke-linecap="round" stroke-linejoin="round"/>
</svg>
