<svg width="26" height="23" viewBox="0 0 26 23" fill="none" xmlns="http://www.w3.org/2000/svg">
<path fill-rule="evenodd" clip-rule="evenodd" d="M24.8879 17.1908C24.8879 19.6186 22.9273 21.5864 20.5092 21.5864H5.60667C3.18821 21.5864 1.22796 19.6186 1.22796 17.1908V9.37144C1.22796 6.94364 3.18821 4.97583 5.60667 4.97583H20.5092C22.9273 4.97583 24.8879 6.94364 24.8879 9.37144V17.1908Z" stroke="#908F9D" stroke-width="2" stroke-linecap="round" stroke-linejoin="round"/>
<path fill-rule="evenodd" clip-rule="evenodd" d="M17.6547 13.2812C17.6547 15.8294 15.5966 17.8955 13.0582 17.8955C10.5193 17.8955 8.46123 15.8294 8.46123 13.2812C8.46123 10.7329 10.5193 8.66687 13.0582 8.66687C15.5966 8.66687 17.6547 10.7329 17.6547 13.2812Z" stroke="#908F9D" stroke-width="2" stroke-linecap="round" stroke-linejoin="round"/>
<path d="M15.3835 1.22583H21.7198" stroke="#908F9D" stroke-width="2" stroke-linecap="round" stroke-linejoin="round"/>
</svg>
