<svg width="19" height="19" viewBox="0 0 19 19" fill="none" xmlns="http://www.w3.org/2000/svg">
<path fill-rule="evenodd" clip-rule="evenodd" d="M0.00776185 2.03886C0.314654 4.92925 1.29822 7.707 2.87865 10.1464C4.3144 12.4057 6.22998 14.3215 8.48948 15.757C10.9179 17.3319 13.682 18.3153 16.5594 18.6281C16.6181 18.6333 16.6768 18.6357 16.7353 18.6355C17.7683 18.6313 18.6024 17.7904 18.5982 16.7577V13.9523C18.6217 13.003 17.9301 12.1866 16.9897 12.054C16.0919 11.9354 15.2102 11.7161 14.3618 11.3995C13.6786 11.1425 12.9082 11.3067 12.3889 11.8202L11.2013 13.0077C8.86005 11.6767 6.92158 9.73841 5.59052 7.39712L6.77809 6.20956C7.29136 5.69031 7.45596 4.9199 7.19882 4.23646C6.88237 3.38783 6.66265 2.50636 6.54444 1.60857C6.41288 0.678942 5.61301 -0.00907898 4.67423 7.62939e-05H1.86862C1.81309 7.62939e-05 1.75756 0.00266457 1.70203 0.0078392C0.730609 0.0954094 0 0.9112 0 1.8683C0 1.92462 0.00258728 1.98174 0.00776185 2.03886Z" fill="#25D366"/>
</svg>
